# xmcd
#
# Track frame offsets:
#  150
#  15646
#  33141
#  43604
#  57126
#  67116
#  85995
#  107965
#  129969
#  146040
#  165836
#  183347
#
# Disc length: 2608 seconds
#
# Revision: 0
# Processed by: cddbd v1.5.1PL2 Copyright (c) Steve Scherf et al.
# Submitted via: Collectorz.com_Music_Collector 6.11
#
DISCID=990a2e0c
DTITLE=Carl Johns - Exile on Schley Pass
DYEAR=2006
DGENRE=Pop
TTITLE0=Ima Clam
TTITLE1=My Time
TTITLE2=Surefire Woman
TTITLE3=Palm Springs
TTITLE4=Youll Look For Me
TTITLE5=Bombay in a Bottle
TTITLE6=One Friend
TTITLE7=Black Mirrors
TTITLE8=Two Steps Ahead
TTITLE9=Your Scars
TTITLE10=Two Members
TTITLE11=Pink and Silver
EXTD=
EXTT0=
EXTT1=
EXTT2=
EXTT3=
EXTT4=
EXTT5=
EXTT6=
EXTT7=
EXTT8=
EXTT9=
EXTT10=
EXTT11=
PLAYORDER=
